<?xml version="1.0" encoding="utf-8"?>
<!-- Generator: Adobe Illustrator 22.0.1, SVG Export Plug-In . SVG Version: 6.00 Build 0)  -->
<svg version="1.1" id="图层_1" xmlns="http://www.w3.org/2000/svg" xmlns:xlink="http://www.w3.org/1999/xlink" x="0px" y="0px"
	 viewBox="0 0 500 199" style="enable-background:new 0 0 500 199;" xml:space="preserve">
<style type="text/css">
	.st0{fill:#80D0F0;stroke:#777777;stroke-width:3.896;}
	.st1{fill:#777777;stroke:#777777;stroke-width:3.896;}
	.st2{fill:#7ECEF4;stroke:#777777;stroke-width:3.896;}
</style>
<path id="圆角矩形_1" class="st0" d="M22.5,101.9h39c2.2,0,3.9,1.7,3.9,3.9l0,0v81.7c0,2.2-1.7,3.9-3.9,3.9h-39
	c-2.2,0-3.9-1.7-3.9-3.9v-81.7C18.6,103.7,20.3,101.9,22.5,101.9z"/>
<path id="形状_1" class="st0" d="M352.9,156.4h3.9v31.2h-3.9V156.4z"/>
<path id="圆角矩形_2" class="st1" d="M22.6,102h39c2.2,0,3.9,1.7,3.9,3.9l0,0v5.5H18.7v-5.5C18.7,103.8,20.4,102,22.6,102z"/>
<path id="圆角矩形_2-2" class="st1" d="M18.7,182h46.7v5.4c0,2.2-1.7,3.9-3.9,3.9h-39c-2.2,0-3.9-1.7-3.9-3.9L18.7,182L18.7,182
	z"/>
<path id="圆角矩形_3" class="st0" d="M74.3,101.8h144.2c2.2,0,3.9,1.7,3.9,3.9v81.7c0,2.2-1.7,3.9-3.9,3.9H74.3
	c-2.2,0-3.9-1.7-3.9-3.9v-81.7C70.4,103.6,72.1,101.8,74.3,101.8L74.3,101.8z"/>
<path id="圆角矩形_4" class="st1" d="M74.3,101.8h14.8v89.5H74.3c-2.2,0-3.9-1.7-3.9-3.9v-81.7
	C70.4,103.6,72.1,101.8,74.3,101.8z"/>
<path id="圆角矩形_4-2" class="st1" d="M203.6,101.8h14.8c2.2,0,3.9,1.7,3.9,3.9v81.7c0,2.2-1.7,3.9-3.9,3.9h-14.8V101.8
	L203.6,101.8z"/>
<path id="圆角矩形_3-2" class="st0" d="M232.1,7.2h245.4c2.2,0,3.9,1.7,3.9,3.9v141.4c0,2.2-1.7,3.9-3.9,3.9H232.1
	c-2.2,0-3.9-1.7-3.9-3.9V11.1C228.2,9,229.9,7.2,232.1,7.2z"/>
<path id="圆角矩形_5" class="st1" d="M30.3,59.3h180.2c6.5,0,11.8,5.3,11.8,11.8c0,6.5-5.3,11.8-11.8,11.8c0,0,0,0,0,0H30.3
	c-6.5,0-11.8-5.3-11.8-11.8C18.6,64.6,23.8,59.4,30.3,59.3z"/>
<circle id="椭圆_1" class="st2" cx="120.5" cy="71.3" r="25.1"/>
<path id="形状_1_1_" class="st0" d="M336.1,191.9V188h37.4v3.9H336.1z"/>
</svg>
