<svg xmlns="http://www.w3.org/2000/svg" viewBox="0 0 150.01 150.04"><defs><style>.cls-1,.cls-2{isolation:isolate;}.cls-2{mix-blend-mode:multiply;}.cls-3{fill-rule:evenodd;}</style></defs><title>icon_gallery</title><g class="cls-1"><g id="形状_1" data-name="形状 1" class="cls-2"><g id="形状_1-2" data-name="形状 1"><path class="cls-3" d="M120,193.47c-8.29,0-8.93-8.71-8.93-11.38,0-2.08,2.18-15.23,3.94-25.8,1.29-7.77,2.51-15.11,2.89-18.09l.11-.92L114.77,135,114,136.7c-2.27,5-15.77,32.53-19.32,38.93-2.57,4.94-5.89,7.75-9.12,7.75-2.61,0-7.56-1.32-7.56-6.34,0-3.14,1.93-6.9,3.58-9.17,1.23-1.82,6.13-7.28,11.32-13.06,7.62-8.48,15.49-17.26,17.27-20.43l.69-1.21-2.91-2.11-.9.59c-12.68,8.26-37.14,24.15-38.91,25.18l-.22.13-.17.18c-.9,1-3.31,1.67-6.13,1.67-5.76,0-7.56-3.52-7.56-4.8a9.81,9.81,0,0,1,5.88-8.64l.14-.07.13-.08c2.17-1.41,41.39-17.09,44.49-18l1.12-.33v-4h-1.57c-1,0-7.69.79-18.46,2.09s-24.5,2.95-26.45,2.95c-12.8,0-12.8-5.92-12.8-7.87,0-7.26,6.06-7.86,12.8-7.86,2,0,12.09,1.25,21.8,2.46,10.65,1.33,20.71,2.58,23.11,2.58h.63l2.85-2.74-2.19-.92-8.29-3.39c-11.9-4.83-34-13.82-37.2-15.43l-.11,0C57.09,93.49,54,90.19,54,86.89,54,82.18,56.72,79,60.69,79h.05a9.6,9.6,0,0,1,3.87.52C70,82.2,83.94,92.19,94.16,99.5c9.76,7,12.34,8.77,13.24,9.06l.76.24,3.06-2.22-1.34-1.29C107.53,103,84.39,76.34,81.59,72.2L81,71.44c-1.12-1.52-3.74-5.07-3.74-7.58,0-5,4.48-7.21,8.92-7.21,3,0,5.74,2.59,8.41,7.91l.05.09c2.89,4.93,18.47,37.72,18.63,38.05l.42.89h4.45l-.33-1.83C116,90.93,111,62.08,111,58.6s.87-12,8.93-12c3.53,0,8.24,1.25,8.24,12,0,2.68-5.2,39.3-6.11,43.06l-.47,1.93h4.59l.41-.92c2.16-4.78,10.33-21.27,15.22-31.12,1.78-3.59,3.09-6.24,3.46-7,2.17-3.85,5.72-8.55,10-8.55,2,0,6.65,2.68,6.65,7.87,0,3.38-2.7,7.08-3.58,8.29l-.06.1c-.54.85-6.34,7.61-11.47,13.58-9.72,11.32-16.16,18.86-17.07,20.48l-.67,1.21,3.09,2.24.94-.9c1.29-1.2,33.53-25,41.48-28.43l.12-.05.1-.07a8.41,8.41,0,0,1,3.72-.63,7,7,0,0,1,7.33,7.21c0,3.83-1.94,6.43-5.77,7.74l-.11,0-.11,0c-1.19.61-9.19,3.89-17.66,7.35-15.68,6.42-26.06,10.69-27.41,11.6l-1.6,1.08,2.67,2.58.81-.17c3.18-.66,40.28-5,43.91-5h.11l.11,0a17.74,17.74,0,0,1,2.47-.17c3.78,0,10.11,1.05,10.11,8.05,0,6.51-7,7.87-12.8,7.87-5.05,0-37.57-3.66-44.62-5l-.79-.16-2.84,2.74,1.93,1c1.25.64,7.62,3.26,17.91,7.47,10.79,4.41,25.55,10.45,26.85,11.3l.17.11.2.07a8.51,8.51,0,0,1,5.78,7.74,6.5,6.5,0,0,1-6.65,5.67,15.56,15.56,0,0,1-6.56-1.55c-.4-.17-.79-.34-1.18-.49-2.44-1.46-26.33-17-38.82-25.12l-2.41-1.58v4.21l.47.46c2.25,2.16,25.64,29.81,28.28,33.09l.52.9c1.45,2.54,3.1,5.43,3.1,8.31,0,4.78-5.62,6.34-7.56,6.34-3.87,0-7.08-2.69-9-7.58-.88-2-7.13-14.23-12.64-25.07-3.36-6.6-6.26-12.3-6.79-13.41l-.43-.88h-3.45V138c0,1.33,1,7.88,2.6,18.47,1.59,10.38,3.56,23.31,3.56,25.62C128.21,189.64,125.43,193.47,120,193.47Zm0-78.53a6.29,6.29,0,0,0-6.13,5.73,6.12,6.12,0,0,0,12.24,0A6.27,6.27,0,0,0,120,114.94Z" transform="translate(-44.96 -45)"/><path d="M120,48.12c2,0,6.67,0,6.67,10.48,0,2.74-5.17,39.05-6.06,42.69l-.71,2.91-.48-2.71c-2.62-15-6.79-39.9-6.79-42.89,0-4.78,1.28-10.48,7.37-10.48m35.33,9.43c1.31,0,5.08,2.17,5.08,6.31,0,2.87-2.46,6.26-3.27,7.38l-.05.06-.06.09c-.67,1-6.34,7.59-11.34,13.41-11.42,13.31-16.35,19.13-17.25,20.75L127.06,108l2.24,1.63.91.66,2.12,1.54,1.86-1.79c2.09-1.83,33.4-24.88,41-28.14l.24-.11.22-.13c.18-.12.82-.39,2.87-.39a5.41,5.41,0,0,1,5.77,5.65c0,3.13-1.54,5.18-4.72,6.26l-.22.07-.2.11c-1.13.58-9.47,4-17.54,7.3-19.27,7.88-26.35,10.84-27.69,11.75l-3.21,2.15,2.79,2.69.68.66L135.4,119l1.62-.33c2.75-.57,40.06-5,43.59-5h.23l.22,0a15.53,15.53,0,0,1,2.24-.16c5.67,0,8.54,2.19,8.54,6.49,0,2.44-1.1,4-3.57,5a20.1,20.1,0,0,1-7.66,1.26c-4.83,0-37.56-3.68-44.32-5L134.7,121l-1.17,1.13-.69.66-3.13,3,3.87,2c1.3.68,7.7,3.31,18,7.53,9.92,4.06,24.9,10.19,26.61,11.18l.3.21.4.13a6.92,6.92,0,0,1,4.72,6.26,4.89,4.89,0,0,1-5.09,4.11,14,14,0,0,1-6-1.44l-1.09-.44c-2.7-1.65-24.35-15.71-38.66-25L128,127.19V135l1,.92c1.92,1.85,24.65,28.61,28.07,32.84.14.26.3.52.45.79,1.36,2.38,2.89,5.07,2.89,7.54,0,3.63-4.67,4.78-6,4.78-3.19,0-5.89-2.34-7.58-6.59l0-.06,0-.06c-.8-1.79-6-11.94-12.61-25-3.38-6.63-6.29-12.35-6.81-13.44l-.85-1.77h-6V138c0,1.38.76,6.49,2.62,18.7,1.49,9.79,3.53,23.2,3.53,25.39,0,9.82-4.85,9.82-6.67,9.82-6.65,0-7.37-6.87-7.37-9.82,0-2,2.27-15.58,3.92-25.54,1.3-7.79,2.52-15.14,2.9-18.16l.23-1.83-1.5-1.09-.91-.66-3.1-2.25-1.58,3.49c-2.27,5-15.73,32.44-19.27,38.82l0,0,0,0c-2.23,4.31-5.12,6.88-7.71,6.88-.25,0-6-.06-6-4.78,0-2.58,1.64-6,3.27-8.25l0,0,0-.05c1.15-1.69,6.24-7.36,11.17-12.85,9.13-10.18,15.73-17.62,17.47-20.7l1.36-2.43-2.25-1.63-.91-.66L108,129.16l-1.8,1.18c-14.73,9.59-37.23,24.2-38.85,25.14l-.43.25-.33.37c-.4.44-2.1,1.15-5,1.15-4.74,0-6-2.61-6-3.24a8.18,8.18,0,0,1,4.9-7.2l.29-.12.23-.15c2.91-1.69,41.1-16.94,44.09-17.82l2.24-.66v-6.79h-3.13c-1.08,0-6.24.61-18.65,2.11-10.3,1.24-24.41,2.94-26.26,2.94-11.23,0-11.23-4.58-11.23-6.31,0-5.33,3.78-6.3,11.23-6.3,2,0,12.39,1.3,21.61,2.45,12.94,1.61,21,2.59,23.3,2.59h1.26l.91-.87.69-.66,3.42-3.29-4.38-1.84c-.95-.4-4-1.66-8.31-3.39-11.87-4.83-34-13.8-37.09-15.38l-.1,0-.11,0c-2.37-1-4.91-3.76-4.91-6.33,0-3.83,2-6.31,5.08-6.31A8.39,8.39,0,0,1,64,81c5.27,2.64,19.14,12.55,29.28,19.8,10.79,7.71,12.58,8.92,13.68,9.28l1.51.48,1.28-.93.91-.66,3-2.19L111,104.16c-2.33-2.24-25.3-28.72-28.09-32.86l-.57-.79c-.94-1.27-3.44-4.65-3.44-6.65,0-5.49,6.61-5.65,7.36-5.65,2.31,0,4.67,2.37,7,7.05l0,.1,0,.09c2.86,4.87,18.41,37.59,18.57,37.92l.85,1.78h14.48l.83-1.84c2.14-4.76,10.31-21.24,15.2-31.08l3.42-6.92c2.83-5,5.89-7.76,8.62-7.76M120,128.18a7.43,7.43,0,0,0,7.68-7.51,7.7,7.7,0,0,0-15.37,0,7.44,7.44,0,0,0,7.69,7.51M120,45c-8.9,0-10.49,8.55-10.49,13.6,0,4.38,6.84,43.43,6.84,43.43h-1.6S99,68.91,96,63.86c-3-5.92-6.16-8.77-9.81-8.77-5.24,0-10.48,2.85-10.48,8.77,0,3.51,3.65,7.89,4.55,9.21,3,4.39,26.22,31.15,28.5,33.34l-.91.66c-2-.66-33.74-24.57-42.63-28.95a11,11,0,0,0-4.56-.66c-4.56,0-8.21,3.51-8.21,9.43,0,4.17,3.65,7.9,6.84,9.22,4.34,2.19,41.95,17.32,45.6,18.86l-.69.66c-4.55,0-40.57-5-44.91-5-5.24,0-14.36,0-14.36,9.43,0,8.56,9.12,9.43,14.36,9.43,3.65,0,42.64-5,44.91-5v1.32c-3,.87-42.62,16.67-44.91,18.2A11.31,11.31,0,0,0,52.48,154c0,2,2.28,6.36,9.13,6.36,3,0,5.92-.65,7.29-2.19,2.28-1.32,39-25.22,39-25.22l.91.66c-3,5.26-25.53,28.95-28.5,33.33-1.59,2.2-3.87,6.37-3.87,10.09,0,5.71,5.25,7.9,9.12,7.9,3.65,0,7.52-2.85,10.49-8.55,3.65-6.58,17.1-34,19.38-39l.91.66c-.91,7.24-6.84,40.36-6.84,44.09,0,4.39,1.59,12.94,10.49,12.94s9.8-8.55,9.8-12.94-6.15-41.24-6.15-44.09h.9c1.37,2.85,18,35.32,19.38,38.39,2.28,5.7,6.16,8.55,10.49,8.55,3,0,9.12-2.19,9.12-7.9,0-3.72-2.28-7.23-3.87-10.09-2.28-2.85-26.22-31.14-28.5-33.33V133s36.7,23.9,39,25.22c2.28.88,4.56,2.19,8.43,2.19a8,8,0,0,0,8.21-7.23,10,10,0,0,0-6.84-9.22c-2.27-1.53-41.95-17.33-44.91-18.86l.69-.66c6.83,1.32,39.67,5,44.91,5,4.56,0,14.36-.87,14.36-9.43,0-7.83-6.77-9.61-11.67-9.61a19.32,19.32,0,0,0-2.69.18c-3.65,0-41,4.39-44.23,5l-.68-.66c2.27-1.54,42-17.33,44.91-18.86,3.87-1.32,6.84-4.17,6.84-9.22a8.51,8.51,0,0,0-8.9-8.77c-.9,0-3.18,0-4.55.87-8.21,3.51-40.58,27.42-41.95,28.74l-.91-.66c1.59-2.85,27.12-31.8,28.5-34,1.59-2.19,3.87-5.7,3.87-9.21,0-5.92-5.25-9.43-8.21-9.43-4.56,0-8.43,4.17-11.4,9.43-1.37,2.85-15.73,31.59-18.69,38.17h-1.59c.9-3.73,6.15-40.37,6.15-43.43,0-5.05-.91-13.6-9.8-13.6Zm0,80.06a4.33,4.33,0,0,1-4.56-4.39,4.57,4.57,0,0,1,9.11,0,4.33,4.33,0,0,1-4.55,4.39Z" transform="translate(-44.96 -45)"/></g></g></g></svg>