<svg xmlns="http://www.w3.org/2000/svg" width="600" height="600" viewBox="0 0 1000 1000">
  <metadata><?xpacket begin="﻿" id="W5M0MpCehiHzreSzNTczkc9d"?>
<x:xmpmeta xmlns:x="adobe:ns:meta/" x:xmptk="Adobe XMP Core 5.6-c142 79.160924, 2017/07/13-01:06:39        ">
   <rdf:RDF xmlns:rdf="http://www.w3.org/1999/02/22-rdf-syntax-ns#">
      <rdf:Description rdf:about=""/>
   </rdf:RDF>
</x:xmpmeta>
                                                                                                    
                                                                                                    
                                                                                                    
                                                                                                    
                                                                                                    
                                                                                                    
                                                                                                    
                                                                                                    
                                                                                                    
                                                                                                    
                                                                                                    
                                                                                                    
                                                                                                    
                                                                                                    
                                                                                                    
                                                                                                    
                                                                                                    
                                                                                                    
                                                                                                    
                                                                                                    
                           
<?xpacket end="w"?></metadata>
<defs>
    <style>
      .cls-1 {
        fill: red;
        fill-rule: evenodd;
      }

      .cls-2 {
        fill: none;
        stroke: red;
        stroke-width: 60px;
      }
    </style>
  </defs>
  <path id="兼" class="cls-1" d="M529.775,106.244q0,18.024,11.866,18.018h73.388q18.89,0,27.246,3.515,8.785,3.955,8.789,13.184v12.3H541.641q-11.866,0-11.866,17.578t11.866,17.578H651.064v28.564H541.641q-11.866,0-11.866,15.821t11.866,15.82H651.064v28.125H541.641q-11.866,0-11.866,16.26,0,15.821,11.866,15.82H651.064v29.883H541.641q-11.866,0-11.866,17.139,0,17.582,11.866,17.578H651.064v27.246h-45.7q-41.754,0-60.644,10.547t-18.9,32.959v33.837q0,11.867,16.26,11.866t16.26-11.866V451.215q0-8.353,10.986-11.865,10.98-3.956,36.035-3.955h45.7v42.626q0,11.867,15.821,11.866t15.82-11.866V435.4h90.088v42.626q0,11.867,15.82,11.866,15.378,0,15.381-11.866V435.4h46.582q25.048,0,36.475,3.955,11.423,3.511,11.426,11.865v26.806q0,11.867,15.82,11.866t15.82-11.866V444.184q0-22.413-18.457-32.959-18.9-10.548-60.2-10.547H803.994V373.432h47.461q41.3,0,60.2-18.9,18.458-18.458,18.457-58.887v-1.757q0-40.427-18.457-58.887-18.9-18.015-60.2-18.018H803.994V188.422h114.7q11.866,0,11.866-17.578t-11.866-17.578h-114.7v-12.3q0-9.228,8.35-13.623,8.785-3.956,28.564-3.955H919.57q11.865,0,11.866-17.578,0-18.015-11.866-18.018H851.455q-41.312,0-60.205,15.381-18.457,15.387-18.457,49.219v0.879H682.705v-0.879q0-33.835-18.018-49.219T607.119,87.787H541.641q-11.866,0-11.866,18.457h0Zm243.018,82.178v28.564H682.705V188.422h90.088Zm0,60.205v28.125H682.705V248.627h90.088Zm77.783,0q24.606,0,36.035,3.955,11.865,3.522,11.866,11.865v12.305H803.994V248.627h46.582Zm-77.783,60.2v29.883H682.705V308.832h90.088Zm125.684,0v12.305q0,9.228-11.866,13.623-11.432,3.954-36.035,3.955H803.994V308.832h94.483Zm-125.684,64.6v27.246H682.705V373.432h90.088Z"/>
  <path id="则" class="cls-1" d="M55.82,323.047q0,41.312,14.5,59.766,14.5,18.9,46.143,18.9h0.879v22.852q0,16.695-3.955,25.048t-12.744,8.35h-29q-11.865,0-11.865,15.82T71.641,489.6H106.8q24.164,0,35.156-18.9t10.986-59.326v-9.668h28.125v9.668q0,40.869,9.668,59.326,10.1,18.89,32.08,18.9h31.641q11.865,0,11.865-15.821t-11.865-15.82H228.086q-7.911,0-11.426-8.35-3.956-7.909-3.955-25.048V401.709h0.879q30.754,0,44.824-18.9,14.5-18.891,14.5-59.766V161.328q0-41.745-18.9-60.644-18.458-18.89-59.766-18.9H135.361q-41.754,0-60.644,18.9t-18.9,60.644V323.047ZM296.641,149.023q0,33.846,15.38,49.659,15.82,15.821,49.219,15.82h27.246q20.652,0,30.323,10.986,9.66,11.433,9.668,35.6V410.5q0,24.164-9.668,35.6-9.672,11.865-30.323,11.865H306.748q-12.751,0-12.744,15.82T306.748,489.6h74.707q41.3,0,60.205-18.9,18.457-18.457,18.457-59.326V257.568q0-41.3-14.941-60.2-15.389-18.456-48.34-18.457H369.15q-20.217,0-29-4.394t-8.789-14.063V135.84q0-9.228,8.35-14.063,8.786-4.388,27.686-4.394h75.146q11.865,0,11.865-17.578,0-18.014-11.865-18.018H374.424q-40.869,0-59.326,15.82t-18.457,49.658v1.757ZM98.887,126.611q10.547-8.342,34.717-8.349h61.523q23.73,0,34.277,8.349,10.98,8.354,10.987,26.807v25.488H88.34V153.418q0-18.458,10.547-26.807h0Zm141.5,87.891v56.25H88.34V214.5H240.391Zm79.541,212.256q0,11.865,16.7,11.865t16.7-11.865V239.111q0-12.739-16.7-12.744t-16.7,12.744V426.758ZM240.391,302.832V328.32q0,20.219-10.987,29-10.547,9.229-34.277,9.229H133.6q-24.174,0-34.717-9.229-10.547-8.786-10.547-29V302.832H240.391Z"/>
  <path id="明" class="cls-1" d="M55.82,779.172q0,41.311,18.457,60.2Q92.734,857.4,133.6,857.4h1.757q40.427,0,58.887-18.018,18.458-18.889,18.457-60.2V589.328q0-41.3-18.457-60.644-18.457-18.889-58.887-18.9H133.6q-40.871,0-59.327,18.9Q55.82,548.027,55.82,589.328V779.172Zm172.7-250.928q0,18.024,12.745,18.018h15.82v339.7H67.246q-11.865,0-11.865,15.82T67.246,917.6H381.455q41.3,0,60.205-18.9,18.457-18.457,18.457-59.326V589.328q0-41.745-18.457-60.644-18.9-18.889-60.205-18.9H241.27q-12.751,0-12.745,18.457h0ZM94.492,557.688q6.149-11.423,20.215-11.426h39.111q13.617,0,20.215,11.426,7.025,10.989,7.031,35.156v77.783H88.34V592.844q0-24.164,6.152-35.156h0Zm286.084-11.426q24.606,0,36.035,11.426,11.865,10.989,11.866,35.156V838.5q0,24.163-11.866,35.6-11.431,11.865-36.035,11.865H288.73v-339.7h91.846Zm-41.308,312.89q0,11.865,17.138,11.866t17.139-11.866V568.234q0-12.74-17.139-12.744t-17.138,12.744V859.152Zm-158.2-156.445v72.07q0,25.05-7.031,36.475-6.591,11.433-20.215,11.426H114.707q-14.07,0-20.215-11.426T88.34,774.777v-72.07h92.724Z"/>
  <rect id="矩形_1" data-name="矩形 1" class="cls-2" width="1000" height="1000"/>
  <path id="听" class="cls-1" d="M522.3,610.27q0,41.312,18.9,60.205,18.89,18.456,60.645,18.457h83.5v6.152q0,4.841-11.426,7.471-11.865,2.2-36.035,2.2H528.457q-11.865,0-11.865,16.26,0,15.821,11.865,15.82H639.639q40.869,0,59.765-18.9t18.9-59.766V644.107q0-41.743-18.9-60.2-18.456-18.456-59.765-18.457H555.7v-7.031q0-4.83,10.986-7.471,11.867-2.193,36.036-2.2H710.391q11.865,0,11.865-16.26,0-16.7-11.865-16.7H601.846q-41.755,0-60.645,18.9t-18.9,60.644V610.27Zm313.33-100.2q-15.821,0-15.821,11.865v20.655h-76.9q-12.751,0-12.744,17.578T742.91,577.75h76.9v19.336H815.42q-41.755,0-60.2,10.547T736.758,642.35v1.757q0,23.3,18.457,33.838,18.889,10.99,60.2,10.987h39.551q41.3,0,60.205-10.987,18.456-10.547,18.457-33.838V642.35q0-23.731-18.457-34.717-18.9-10.547-60.205-10.547h-3.516V577.75h76.9q11.866,0,11.866-17.578t-11.866-17.578h-76.9V521.939q0-11.865-15.82-11.865h0ZM637.881,597.086q24.164,0,35.156,2.2,11.423,2.205,11.426,6.592v7.031H555.7v-15.82h82.178ZM770.6,633.561a52.46,52.46,0,0,1,11.425-.879h11.426V650.26H782.021q-7.909,0-11.425-1.319a3.789,3.789,0,0,1-3.076-3.955v-7.91q0-2.193,3.076-3.515h0Zm73.828-.879V650.26H825.967V632.682h18.457Zm42.627,0a52.521,52.521,0,0,1,11.426.879q3.511,1.317,3.515,3.515v7.91q0,3.079-3.515,3.955-3.955,1.319-11.426,1.319H876.5V632.682h10.547ZM684.463,644.107v13.184H602.725q-24.617,0-36.036-1.758-10.989-1.75-10.986-6.152v-5.274h128.76Zm44.824,79.981q0,18.9,12.744,18.9H930.117q11.865,0,11.865-18.9,0-19.332-11.865-19.336H742.031q-12.75,0-12.744,19.336h0ZM518.35,768.912q0,16.263,11.865,16.26h50.1v7.91q0,6.592-3.955,9.668t-12.744,3.076H550.43q-14.5,0-21.534,14.063-6.591,14.068-6.591,45.263v50.537q0,11.867,16.7,11.866t16.7-11.866v-55.81q0-14.5,3.516-21.094t11.426-6.592h12.3q14.06,0,19.776-10.986,6.148-10.98,6.152-35.156v-0.879h31.641q24.606,0,35.6,1.758,11.422,1.318,11.426,4.394v11.865q0,3.081-4.394,4.834-4.4,2.205-13.624,2.2H656.338q-14.944,0-21.533,9.228t-6.592,30.322v0.879H572.4q-12.308,0-12.3,13.623,0,14.059,12.3,14.063h55.811v17.139H573.281q-12.307,0-12.3,15.82t12.3,15.82H713.027q11.865,0,11.866-15.82t-11.866-15.82H659.854V878.336h53.173q11.865,0,11.866-14.063,0-13.615-11.866-13.623H659.854V844.5q0-3.512,3.955-4.834,3.512-1.319,12.744-1.318h13.623q14.5,0,21.094-10.108,7.023-10.547,7.031-32.08v-2.2q0-21.526-18.9-31.641-18.456-9.66-59.765-9.668H530.215q-11.865,0-11.865,16.26h0Zm218.408,79.1q0,22.844.439,30.761,0,11.867,1.319,16.7l0.879,7.91q2.193,8.785,13.623,9.668,11.421,1.318,36.035-5.274h0.879v0.879q0,9.23,17.578,13.623,18.014,4.832,56.689,4.834h64.16q11.866,0,11.866-15.82t-11.866-15.82H876.5V873.062h0.879q27.686,0,40.429-13.623,12.3-13.183,12.3-43.066v-1.758q0-29.879-10.986-43.506-10.546-13.183-33.838-13.183H850.576q-12.308,0-12.305,18.017t12.305,18.018h32.959q9.228,0,13.623,3.076,4.832,3.08,4.834,9.668v18.457q0,6.592-3.515,9.668-3.523,3.522-11.426,3.516H876.5v-29q0-12.741-16.26-12.744-15.821,0-15.82,12.744v86.133h-7.91q-5.717,0-8.35-7.032-2.2-7.034-2.2-23.291V808.463q0-12.741-16.26-12.744t-16.26,12.744v60.205l-11.426,4.394q-7.477,2.637-10.986-2.2t-3.515-17.578V819.01q0-13.183,4.394-18.9,4.388-6.149,14.5-6.152h33.4q11.867,0,11.866-18.018t-11.866-18.017H783.779q-25.048,0-36.035,14.941-10.989,14.5-10.986,47.9v27.246Z"/>
</svg>
